# xmcd CD database file
#
# Track frame offsets:
#	150
#	25893
#	57535
#	85332
#	114063
#	156359
#
# Disc length: 2450 seconds
#
# Revision: 1
# Processed by: cddbd v1.5.2PL0 Copyright (c) Steve Scherf et al.
# Submitted via: CDex 1.79
#
DISCID=44099006
DTITLE=SONNY  ROLLINS - Blue Note 1558 Vol. 2
DYEAR=1957
DGENRE=Jazz
TTITLE0=Why Don't i
TTITLE1=Wail March
TTITLE2=Misterioso
TTITLE3=Reflections
TTITLE4=You Stepped Out Of a Dream
TTITLE5=Poor Butterflay
EXTD=YEAR: 1957
EXTT0=
EXTT1=
EXTT2=
EXTT3=
EXTT4=
EXTT5=
PLAYORDER=
